<?xml version="1.0" encoding="UTF-8" standalone="no" ?>
<!DOCTYPE svg PUBLIC "-//W3C//DTD SVG 1.1//EN" "http://www.w3.org/Graphics/SVG/1.1/DTD/svg11.dtd">
<svg xmlns="http://www.w3.org/2000/svg" xmlns:xlink="http://www.w3.org/1999/xlink" version="1.1" width="640" height="640" viewBox="0 0 640 640" xml:space="preserve">
<desc>Created with Fabric.js 5.3.0</desc>
<defs>
</defs>
<g transform="matrix(5.0700644261 0 0 5.0700644261 320.4799888584 321.2797010744)" id="ewKpbTXebxZZScZVMi8wA"  >
<path style="stroke: none; stroke-width: 1; stroke-dasharray: none; stroke-linecap: butt; stroke-dashoffset: 0; stroke-linejoin: miter; stroke-miterlimit: 4; fill: rgb(250,250,250); fill-rule: nonzero; opacity: 1;" vector-effect="non-scaling-stroke"  transform=" translate(-117.6277777778, -116.6913061224)" d="M 167.2 179.4 C 164.6 179.4 162.6 179.1 161.29999999999998 178.20000000000002 C 158.49999999999997 176.60000000000002 156.29999999999998 172.20000000000002 154.39999999999998 167.8 C 153.49999999999997 165.9 152.59999999999997 164 151.59999999999997 162.10000000000002 L 149.49999999999997 158.60000000000002 C 145.39999999999998 151.40000000000003 141.29999999999998 143.8 137.59999999999997 136.3 C 129.49999999999997 119.4 115.59999999999997 109.4 96.59999999999997 106.60000000000001 C 96.49999999999997 106.60000000000001 96.19999999999996 106.60000000000001 96.19999999999996 106.60000000000001 L 96.19999999999996 92.4 C 113.79999999999995 93.7 129.49999999999994 100.9 140.99999999999994 114.10000000000001 C 141.69999999999993 114.80000000000001 144.99999999999994 115.10000000000001 145.59999999999994 114.7 C 154.69999999999993 109 158.49999999999994 99.4 156.29999999999993 88.7 C 154.49999999999991 80 148.39999999999992 73.10000000000001 140.29999999999993 70.2 C 135.29999999999993 68.4 82.39999999999992 68.9 78.59999999999992 68.9 C 76.99999999999993 68.9 75.09999999999992 69.2 73.89999999999992 70.4 C 72.29999999999993 71.9 72.29999999999993 74.10000000000001 72.39999999999992 76.10000000000001 C 72.39999999999992 80.10000000000001 72.49999999999991 84.00000000000001 72.49999999999991 88.00000000000001 C 72.39999999999992 96.50000000000001 71.89999999999992 104.9 71.89999999999992 113.4 C 71.89999999999992 121.30000000000001 71.29999999999993 129.3 71.29999999999993 137 L 71.29999999999993 142.4 C 71.29999999999993 143 71.29999999999993 152.1 74.39999999999992 153.1 C 75.29999999999993 153.4 87.19999999999992 146.5 91.29999999999993 144.29999999999998 C 94.19999999999993 142.7 98.79999999999993 140.29999999999998 102.19999999999993 141.1 C 103.99999999999993 141.5 105.29999999999993 142.4 106.19999999999993 143.2 C 108.99999999999993 145.5 109.99999999999993 148.5 110.49999999999993 150.1 C 103.49999999999993 153.9 97.59999999999992 157.7 93.19999999999993 161 C 86.39999999999993 166 80.29999999999993 171.4 74.59999999999994 177.4 C 74.29999999999994 177.70000000000002 72.99999999999994 178.3 72.69999999999993 178.3 C 67.99999999999993 178.4 58.19999999999993 178.3 58.19999999999993 178.3 C 58.09999999999993 178.20000000000002 58.19999999999993 178 58.19999999999993 177.9 C 58.09999999999993 171 58.29999999999993 164.20000000000002 58.29999999999993 157.3 C 58.29999999999993 145.8 58.29999999999993 134.20000000000002 58.29999999999993 122.80000000000001 C 58.29999999999993 110.60000000000001 58.29999999999993 98.30000000000001 58.29999999999993 86.10000000000001 C 58.29999999999993 77.30000000000001 58.59999999999993 68.5 58.19999999999993 59.70000000000001 C 58.19999999999993 59.10000000000001 57.899999999999935 56.90000000000001 59.19999999999993 55.60000000000001 C 59.19999999999993 55.60000000000001 60.09999999999993 54.60000000000001 61.79999999999993 54.30000000000001 C 66.39999999999993 53.40000000000001 128.19999999999993 54.70000000000001 128.19999999999993 54.70000000000001 C 147.99999999999994 54.70000000000001 162.99999999999994 63.80000000000001 169.19999999999993 80.20000000000002 C 175.49999999999994 96.90000000000002 170.69999999999993 113.20000000000002 155.39999999999992 126.50000000000001 C 155.29999999999993 126.60000000000001 153.79999999999993 127.40000000000002 153.49999999999991 127.50000000000001 C 151.99999999999991 128.5 151.5999999999999 130.4 152.29999999999993 131.9 L 177.09999999999994 178.4 C 175.8 178.7 169.2 179.4 167.2 179.4 z" stroke-linecap="round" />
</g>
</svg>