<?xml version="1.0" encoding="utf-8"?>
<!-- Generator: Adobe Illustrator 27.4.1, SVG Export Plug-In . SVG Version: 6.00 Build 0)  -->
<svg version="1.1" id="Layer_1" xmlns="http://www.w3.org/2000/svg" xmlns:xlink="http://www.w3.org/1999/xlink" x="0px" y="0px"
	 viewBox="0 0 225 225" style="enable-background:new 0 0 225 225;" xml:space="preserve">
<style type="text/css">
	.st0{fill:#FFFFFF;}
</style>
<circle cx="112.3" cy="113.3" r="111.7"/>
<g>
	<path class="st0" d="M167.2,179.4c-2.6,0-4.6-0.3-5.9-1.2c-2.8-1.6-5-6-6.9-10.4c-0.9-1.9-1.8-3.8-2.8-5.7l-2.1-3.5
		c-4.1-7.2-8.2-14.8-11.9-22.3c-8.1-16.9-22-26.9-41-29.7c-0.1,0-0.4,0-0.4,0V92.4c17.6,1.3,33.3,8.5,44.8,21.7c0.7,0.7,4,1,4.6,0.6
		c9.1-5.7,12.9-15.3,10.7-26c-1.8-8.7-7.9-15.6-16-18.5c-5-1.8-57.9-1.3-61.7-1.3c-1.6,0-3.5,0.3-4.7,1.5c-1.6,1.5-1.6,3.7-1.5,5.7
		c0,4,0.1,7.9,0.1,11.9c-0.1,8.5-0.6,16.9-0.6,25.4c0,7.9-0.6,15.9-0.6,23.6v5.4c0,0.6,0,9.7,3.1,10.7c0.9,0.3,12.8-6.6,16.9-8.8
		c2.9-1.6,7.5-4,10.9-3.2c1.8,0.4,3.1,1.3,4,2.1c2.8,2.3,3.8,5.3,4.3,6.9c-7,3.8-12.9,7.6-17.3,10.9c-6.8,5-12.9,10.4-18.6,16.4
		c-0.3,0.3-1.6,0.9-1.9,0.9c-4.7,0.1-14.5,0-14.5,0c-0.1-0.1,0-0.3,0-0.4c-0.1-6.9,0.1-13.7,0.1-20.6c0-11.5,0-23.1,0-34.5
		c0-12.2,0-24.5,0-36.7c0-8.8,0.3-17.6-0.1-26.4c0-0.6-0.3-2.8,1-4.1c0,0,0.9-1,2.6-1.3c4.6-0.9,66.4,0.4,66.4,0.4
		c19.8,0,34.8,9.1,41,25.5c6.3,16.7,1.5,33-13.8,46.3c-0.1,0.1-1.6,0.9-1.9,1c-1.5,1-1.9,2.9-1.2,4.4l24.8,46.5
		C175.8,178.7,169.2,179.4,167.2,179.4z"/>
</g>
<path d="M85.3,59.9"/>
</svg>
