<?xml version="1.0" encoding="utf-8"?>
<!-- Generator: Adobe Illustrator 20.1.0, SVG Export Plug-In . SVG Version: 6.00 Build 0)  -->
<svg version="1.1" id="Layer_1" xmlns="http://www.w3.org/2000/svg" xmlns:xlink="http://www.w3.org/1999/xlink" x="0px" y="0px"
	 viewBox="0 0 225 225" style="enable-background:new 0 0 225 225;" xml:space="preserve">
<style type="text/css">
	.st0{fill:#FFFFFF;}
</style>
<circle cx="112.3" cy="113.3" r="111.7"/>
<g>
	<path class="st0" d="M151.3,159.4c-1.8,0-3.1-0.2-4-0.8c-1.9-1.1-3.4-4.1-4.7-7.1c-0.6-1.3-1.2-2.6-1.9-3.9l-1.4-2.4
		c-2.8-4.9-5.6-10.1-8.1-15.2c-5.5-11.5-15-18.3-27.9-20.2c-0.1,0-0.3,0-0.3,0v-9.7c12,0.9,22.7,5.8,30.5,14.8
		c0.5,0.5,2.7,0.7,3.1,0.4c6.2-3.9,8.8-10.4,7.3-17.7C142.7,91.7,138.5,87,133,85c-3.4-1.2-39.4-0.9-42-0.9c-1.1,0-2.4,0.2-3.2,1
		c-1.1,1-1.1,2.5-1,3.9c0,2.7,0.1,5.4,0.1,8.1c-0.1,5.8-0.4,11.5-0.4,17.3c0,5.4-0.4,10.8-0.4,16.1v3.7c0,0.4,0,6.6,2.1,7.3
		c0.6,0.2,8.7-4.5,11.5-6c2-1.1,5.1-2.7,7.4-2.2c1.2,0.3,2.1,0.9,2.7,1.4c1.9,1.6,2.6,3.6,2.9,4.7c-4.8,2.6-8.8,5.2-11.8,7.4
		c-4.6,3.4-8.8,7.1-12.7,11.2c-0.2,0.2-1.1,0.6-1.3,0.6c-3.2,0.1-9.9,0-9.9,0c-0.1-0.1,0-0.2,0-0.3c-0.1-4.7,0.1-9.3,0.1-14
		c0-7.8,0-15.7,0-23.5c0-8.3,0-16.7,0-25c0-6,0.2-12-0.1-18c0-0.4-0.2-1.9,0.7-2.8c0,0,0.6-0.7,1.8-0.9c3.1-0.6,45.2,0.3,45.2,0.3
		c13.5,0,23.7,6.2,27.9,17.4c4.3,11.4,1,22.5-9.4,31.5c-0.1,0.1-1.1,0.6-1.3,0.7c-1,0.7-1.3,2-0.8,3l16.9,31.7
		C157.2,158.9,152.7,159.4,151.3,159.4z"/>
</g>
<path d="M85.3,59.9"/>
</svg>
